<svg width="519" height="31" viewBox="0 0 519 31" fill="none" xmlns="http://www.w3.org/2000/svg">
<path d="M25.3264 10H21.8036C21.5953 8.98674 21.2307 8.09659 20.7099 7.32955C20.1985 6.5625 19.5735 5.91856 18.8349 5.39773C18.1057 4.86742 17.296 4.4697 16.4059 4.20455C15.5157 3.93939 14.5877 3.80682 13.6218 3.80682C11.8604 3.80682 10.2648 4.25189 8.83487 5.14205C7.41442 6.0322 6.28279 7.34375 5.43999 9.0767C4.60665 10.8097 4.18999 12.9356 4.18999 15.4545C4.18999 17.9735 4.60665 20.0994 5.43999 21.8324C6.28279 23.5653 7.41442 24.8769 8.83487 25.767C10.2648 26.6572 11.8604 27.1023 13.6218 27.1023C14.5877 27.1023 15.5157 26.9697 16.4059 26.7045C17.296 26.4394 18.1057 26.0464 18.8349 25.5256C19.5735 24.9953 20.1985 24.3466 20.7099 23.5795C21.2307 22.803 21.5953 21.9129 21.8036 20.9091H25.3264C25.0612 22.3958 24.5782 23.7263 23.8775 24.9006C23.1767 26.0748 22.3055 27.0739 21.2639 27.8977C20.2222 28.7121 19.0527 29.3324 17.7553 29.7585C16.4674 30.1847 15.0896 30.3977 13.6218 30.3977C11.1407 30.3977 8.9343 29.7917 7.00249 28.5795C5.07067 27.3674 3.55078 25.6439 2.44283 23.4091C1.33487 21.1742 0.780895 18.5227 0.780895 15.4545C0.780895 12.3864 1.33487 9.73485 2.44283 7.5C3.55078 5.26515 5.07067 3.54167 7.00249 2.32955C8.9343 1.11742 11.1407 0.511363 13.6218 0.511363C15.0896 0.511363 16.4674 0.724431 17.7553 1.15057C19.0527 1.5767 20.2222 2.2017 21.2639 3.02557C22.3055 3.83996 23.1767 4.83428 23.8775 6.00852C24.5782 7.17329 25.0612 8.50379 25.3264 10ZM37.0188 30V0.90909H54.5756V4.03409H40.5415V13.8636H53.6665V16.9886H40.5415V26.875H54.8029V30H37.0188ZM89.9933 0.90909V30H86.5842L70.7319 7.15909H70.4478V30H66.9251V0.90909H70.3342L86.2433 23.8068H86.5273V0.90909H89.9933ZM101.451 4.03409V0.90909H123.27V4.03409H114.122V30H110.599V4.03409H101.451ZM134.706 30V0.90909H144.536C146.809 0.90909 148.674 1.29735 150.132 2.07386C151.591 2.84091 152.67 3.89678 153.371 5.24148C154.072 6.58617 154.422 8.11553 154.422 9.82955C154.422 11.5436 154.072 13.0634 153.371 14.3892C152.67 15.715 151.596 16.7566 150.147 17.5142C148.698 18.2623 146.846 18.6364 144.593 18.6364H136.638V15.4545H144.479C146.032 15.4545 147.282 15.2273 148.229 14.7727C149.185 14.3182 149.877 13.6742 150.303 12.8409C150.739 11.9981 150.956 10.9943 150.956 9.82955C150.956 8.66477 150.739 7.64678 150.303 6.77557C149.867 5.90436 149.171 5.23201 148.215 4.75852C147.258 4.27557 145.994 4.03409 144.422 4.03409H138.229V30H134.706ZM148.4 16.9318L155.559 30H151.468L144.422 16.9318H148.4ZM167.485 30H163.792L174.474 0.90909H178.11L188.792 30H185.099L176.406 5.51136H176.179L167.485 30ZM168.849 18.6364H183.735V21.7614H168.849V18.6364ZM199.324 30V0.90909H202.846V26.875H216.369V30H199.324ZM260.983 8.18182C260.812 6.74242 260.121 5.625 258.909 4.82955C257.697 4.03409 256.21 3.63636 254.449 3.63636C253.161 3.63636 252.034 3.8447 251.068 4.26136C250.111 4.67803 249.363 5.25095 248.824 5.98011C248.293 6.70928 248.028 7.53788 248.028 8.46591C248.028 9.24242 248.213 9.91004 248.582 10.4688C248.961 11.018 249.444 11.4773 250.031 11.8466C250.618 12.2064 251.234 12.5047 251.877 12.7415C252.521 12.9687 253.113 13.1534 253.653 13.2955L256.608 14.0909C257.365 14.2898 258.208 14.5644 259.136 14.9148C260.074 15.2652 260.968 15.7434 261.821 16.3494C262.682 16.946 263.393 17.7131 263.951 18.6506C264.51 19.5881 264.789 20.7386 264.789 22.1023C264.789 23.6742 264.377 25.0947 263.554 26.3636C262.739 27.6326 261.546 28.6411 259.974 29.3892C258.412 30.1373 256.513 30.5114 254.278 30.5114C252.195 30.5114 250.391 30.1752 248.866 29.5028C247.351 28.8305 246.158 27.893 245.287 26.6903C244.425 25.4877 243.937 24.0909 243.824 22.5H247.46C247.555 23.5985 247.924 24.5076 248.568 25.2273C249.221 25.9375 250.045 26.4678 251.039 26.8182C252.043 27.1591 253.123 27.3295 254.278 27.3295C255.623 27.3295 256.83 27.1117 257.9 26.6761C258.97 26.2311 259.818 25.6155 260.443 24.8295C261.068 24.0341 261.38 23.1061 261.38 22.0455C261.38 21.0795 261.11 20.2936 260.571 19.6875C260.031 19.0814 259.321 18.589 258.44 18.2102C257.559 17.8314 256.608 17.5 255.585 17.2159L252.005 16.1932C249.733 15.5398 247.933 14.607 246.608 13.3949C245.282 12.1828 244.619 10.5966 244.619 8.63636C244.619 7.00757 245.059 5.58712 245.94 4.375C246.83 3.15341 248.023 2.20644 249.52 1.53409C251.025 0.852272 252.706 0.511363 254.562 0.511363C256.437 0.511363 258.104 0.847537 259.562 1.51989C261.02 2.18276 262.176 3.09185 263.028 4.24716C263.89 5.40246 264.344 6.71401 264.392 8.18182H260.983ZM276.581 30V0.90909H294.138V4.03409H280.104V13.8636H293.229V16.9886H280.104V26.875H294.365V30H276.581ZM329.556 0.90909V30H326.147L310.294 7.15909H310.01V30H306.488V0.90909H309.897L325.806 23.8068H326.09V0.90909H329.556ZM341.014 4.03409V0.90909H362.832V4.03409H353.684V30H350.162V4.03409H341.014ZM377.792 0.90909V30H374.269V0.90909H377.792ZM390.855 0.90909H395.059L404.946 25.0568H405.287L415.173 0.90909H419.377V30H416.082V7.89773H415.798L406.707 30H403.525L394.434 7.89773H394.15V30H390.855V0.90909ZM432.441 30V0.90909H449.998V4.03409H435.963V13.8636H449.088V16.9886H435.963V26.875H450.225V30H432.441ZM485.415 0.90909V30H482.006L466.154 7.15909H465.87V30H462.347V0.90909H465.756L481.665 23.8068H481.949V0.90909H485.415ZM496.873 4.03409V0.90909H518.691V4.03409H509.544V30H506.021V4.03409H496.873Z" fill="white"/>
</svg>
