<svg width="195" height="46" viewBox="0 0 195 46" fill="none" xmlns="http://www.w3.org/2000/svg">
<path d="M7.00284 42.3324C5.59943 42.3324 4.39489 41.9773 3.3892 41.267C2.3892 40.5511 1.61932 39.5199 1.07955 38.1733C0.545455 36.821 0.278409 35.1932 0.278409 33.2898C0.284091 31.3864 0.553977 29.767 1.08807 28.4318C1.62784 27.0909 2.39773 26.0682 3.39773 25.3636C4.40341 24.6591 5.60511 24.3068 7.00284 24.3068C8.40057 24.3068 9.60227 24.6591 10.608 25.3636C11.6136 26.0682 12.3835 27.0909 12.9176 28.4318C13.4574 29.7727 13.7273 31.392 13.7273 33.2898C13.7273 35.1989 13.4574 36.8295 12.9176 38.1818C12.3835 39.5284 11.6136 40.5568 10.608 41.267C9.60795 41.9773 8.40625 42.3324 7.00284 42.3324ZM7.00284 39.6648C8.09375 39.6648 8.95455 39.1278 9.58523 38.054C10.2216 36.9744 10.5398 35.3864 10.5398 33.2898C10.5398 31.9034 10.3949 30.7386 10.1051 29.7955C9.81534 28.8523 9.40625 28.142 8.87784 27.6648C8.34943 27.1818 7.72443 26.9403 7.00284 26.9403C5.91761 26.9403 5.05966 27.4801 4.42898 28.5597C3.7983 29.6335 3.48011 31.2102 3.47443 33.2898C3.46875 34.6818 3.60795 35.8523 3.89205 36.8011C4.18182 37.75 4.59091 38.4659 5.11932 38.9489C5.64773 39.4261 6.27557 39.6648 7.00284 39.6648ZM18.2939 42.1875C17.7769 42.1875 17.3337 42.0057 16.9644 41.642C16.5951 41.2784 16.4132 40.8352 16.4189 40.3125C16.4132 39.8011 16.5951 39.3636 16.9644 39C17.3337 38.6364 17.7769 38.4545 18.2939 38.4545C18.7939 38.4545 19.2286 38.6364 19.5979 39C19.9729 39.3636 20.1632 39.8011 20.1689 40.3125C20.1632 40.6591 20.0723 40.9744 19.8962 41.2585C19.7257 41.5426 19.4985 41.7699 19.2144 41.9403C18.936 42.1051 18.6291 42.1875 18.2939 42.1875ZM23.8002 42V39.7159L29.8599 33.7756C30.4394 33.1903 30.9224 32.6705 31.3087 32.2159C31.6951 31.7614 31.9849 31.321 32.178 30.8949C32.3712 30.4687 32.4678 30.0142 32.4678 29.5312C32.4678 28.9801 32.3428 28.5085 32.0928 28.1165C31.8428 27.7188 31.4991 27.4119 31.0616 27.196C30.6241 26.9801 30.1269 26.8722 29.5701 26.8722C28.9962 26.8722 28.4934 26.9915 28.0616 27.2301C27.6297 27.4631 27.2945 27.7955 27.0559 28.2273C26.8229 28.6591 26.7064 29.1733 26.7064 29.7699H23.6979C23.6979 28.6619 23.9508 27.6989 24.4564 26.8807C24.9621 26.0625 25.6582 25.429 26.5445 24.9801C27.4366 24.5312 28.4593 24.3068 29.6127 24.3068C30.7832 24.3068 31.8116 24.5256 32.6979 24.9631C33.5843 25.4006 34.2718 26 34.7604 26.7614C35.2547 27.5227 35.5019 28.392 35.5019 29.3693C35.5019 30.0227 35.3769 30.6648 35.1269 31.2955C34.8769 31.9261 34.4366 32.625 33.8059 33.392C33.1809 34.1591 32.303 35.0881 31.1724 36.179L28.1638 39.2386V39.358H35.7661V42H23.8002ZM46.2859 24.5455V42H43.1239V27.6222H43.0217L38.9393 30.2301V27.3324L43.2774 24.5455H46.2859ZM60.5301 38.7273V37.8068C60.5301 37.1307 60.6721 36.5085 60.9562 35.9403C61.246 35.3722 61.6664 34.9148 62.2176 34.5682C62.7687 34.2216 63.4363 34.0483 64.2204 34.0483C65.0272 34.0483 65.7034 34.2216 66.2488 34.5682C66.7943 34.9091 67.2062 35.3636 67.4846 35.9318C67.7687 36.5 67.9108 37.125 67.9108 37.8068V38.7273C67.9108 39.4034 67.7687 40.0256 67.4846 40.5938C67.2005 41.1619 66.7829 41.6193 66.2318 41.9659C65.6863 42.3125 65.0159 42.4858 64.2204 42.4858C63.425 42.4858 62.7517 42.3125 62.2005 41.9659C61.6494 41.6193 61.2318 41.1619 60.9477 40.5938C60.6693 40.0256 60.5301 39.4034 60.5301 38.7273ZM62.7545 37.8068V38.7273C62.7545 39.1761 62.8625 39.5881 63.0784 39.9631C63.2943 40.3381 63.675 40.5256 64.2204 40.5256C64.7716 40.5256 65.1494 40.3409 65.3539 39.9716C65.5642 39.5966 65.6693 39.1818 65.6693 38.7273V37.8068C65.6693 37.3523 65.5699 36.9375 65.371 36.5625C65.1721 36.1818 64.7886 35.9915 64.2204 35.9915C63.6863 35.9915 63.3085 36.1818 63.0869 36.5625C62.8653 36.9375 62.7545 37.3523 62.7545 37.8068ZM51.6579 28.7386V27.8182C51.6579 27.1364 51.8028 26.5114 52.0926 25.9432C52.3824 25.375 52.8028 24.9205 53.3539 24.5795C53.9051 24.233 54.5727 24.0597 55.3568 24.0597C56.1579 24.0597 56.8312 24.233 57.3767 24.5795C57.9278 24.9205 58.3426 25.375 58.621 25.9432C58.8994 26.5114 59.0386 27.1364 59.0386 27.8182V28.7386C59.0386 29.4205 58.8966 30.0455 58.6125 30.6136C58.3341 31.1761 57.9193 31.6278 57.3682 31.9688C56.817 32.3097 56.1466 32.4801 55.3568 32.4801C54.5557 32.4801 53.8795 32.3097 53.3284 31.9688C52.7829 31.6278 52.3682 31.1733 52.0841 30.6051C51.8 30.0369 51.6579 29.4148 51.6579 28.7386ZM53.8994 27.8182V28.7386C53.8994 29.1932 54.0045 29.608 54.2147 29.983C54.4307 30.3523 54.8113 30.5369 55.3568 30.5369C55.9022 30.5369 56.2772 30.3523 56.4818 29.983C56.692 29.608 56.7971 29.1932 56.7971 28.7386V27.8182C56.7971 27.3636 56.6977 26.9489 56.4988 26.5739C56.3 26.1932 55.9193 26.0028 55.3568 26.0028C54.817 26.0028 54.4392 26.1932 54.2233 26.5739C54.0074 26.9545 53.8994 27.3693 53.8994 27.8182ZM52.6295 42L64.6295 24.5455H66.7602L54.7602 42H52.6295Z" fill="#EA1E1E"/>
<path d="M103.5 39L104.821 40.5014L103.5 41.6641L102.179 40.5014L103.5 39ZM117.321 29.5014L104.821 40.5014L102.179 37.4986L114.679 26.4986L117.321 29.5014ZM102.179 40.5014L89.6787 29.5014L92.3213 26.4986L104.821 37.4986L102.179 40.5014Z" fill="#FF0000"/>
</svg>
